{
    "asset" : {
        "generator" : "Khronos glTF Blender I/O v3.4.50",
        "version" : "2.0"
    },
    "scene" : 0,
    "scenes" : [
        {
            "name" : "Scene",
            "nodes" : [
                1
            ]
        }
    ],
    "nodes" : [
        {
            "mesh" : 0,
            "name" : "kids_slide",
            "translation" : [
                -0.08964723348617554,
                0,
                -0.2173471748828888
            ]
        },
        {
            "children" : [
                0
            ],
            "name" : "kids_slide_grp",
            "scale" : [
                100,
                100,
                100
            ]
        }
    ],
    "materials" : [
        {
            "doubleSided" : true,
            "name" : "m_slide.001",
            "normalTexture" : {
                "index" : 0
            },
            "occlusionTexture" : {
                "index" : 1
            },
            "pbrMetallicRoughness" : {
                "baseColorTexture" : {
                    "index" : 2
                },
                "metallicRoughnessTexture" : {
                    "index" : 1
                }
            }
        }
    ],
    "meshes" : [
        {
            "name" : "Mesh",
            "primitives" : [
                {
                    "attributes" : {
                        "COLOR_0" : 0,
                        "POSITION" : 1,
                        "TEXCOORD_0" : 2,
                        "NORMAL" : 3
                    },
                    "indices" : 4,
                    "material" : 0
                }
            ]
        }
    ],
    "textures" : [
        {
            "sampler" : 0,
            "source" : 0
        },
        {
            "sampler" : 0,
            "source" : 1
        },
        {
            "sampler" : 0,
            "source" : 2
        }
    ],
    "images" : [
        {
            "mimeType" : "image/png",
            "name" : "slide_norm",
            "uri" : "slide_norm.png"
        },
        {
            "mimeType" : "image/png",
            "name" : "slide_ao-slide_rough-slide_metal",
            "uri" : "slide_ao-slide_rough-slide_metal.png"
        },
        {
            "mimeType" : "image/png",
            "name" : "slide_basecolor",
            "uri" : "slide_basecolor.png"
        }
    ],
    "accessors" : [
        {
            "bufferView" : 0,
            "componentType" : 5123,
            "count" : 43845,
            "normalized" : true,
            "type" : "VEC4"
        },
        {
            "bufferView" : 1,
            "componentType" : 5126,
            "count" : 43845,
            "max" : [
                0.5964130163192749,
                1.2456562519073486,
                1.1105573177337646
            ],
            "min" : [
                -0.41711854934692383,
                1.8891075370675026e-08,
                -0.6758629679679871
            ],
            "type" : "VEC3"
        },
        {
            "bufferView" : 2,
            "componentType" : 5126,
            "count" : 43845,
            "type" : "VEC2"
        },
        {
            "bufferView" : 3,
            "componentType" : 5126,
            "count" : 43845,
            "type" : "VEC3"
        },
        {
            "bufferView" : 4,
            "componentType" : 5123,
            "count" : 196377,
            "type" : "SCALAR"
        }
    ],
    "bufferViews" : [
        {
            "buffer" : 0,
            "byteLength" : 350760,
            "byteOffset" : 0,
            "target" : 34962
        },
        {
            "buffer" : 0,
            "byteLength" : 526140,
            "byteOffset" : 350760,
            "target" : 34962
        },
        {
            "buffer" : 0,
            "byteLength" : 350760,
            "byteOffset" : 876900,
            "target" : 34962
        },
        {
            "buffer" : 0,
            "byteLength" : 526140,
            "byteOffset" : 1227660,
            "target" : 34962
        },
        {
            "buffer" : 0,
            "byteLength" : 392754,
            "byteOffset" : 1753800,
            "target" : 34963
        }
    ],
    "samplers" : [
        {
            "magFilter" : 9729,
            "minFilter" : 9987
        }
    ],
    "buffers" : [
        {
            "byteLength" : 2146556,
            "uri" : "Kids_Slide.bin"
        }
    ]
}
